<?xml version="1.0" encoding="utf-8"?>
<!-- Generator: Adobe Illustrator 15.1.0, SVG Export Plug-In . SVG Version: 6.00 Build 0)  -->
<!DOCTYPE svg PUBLIC "-//W3C//DTD SVG 1.1//EN" "http://www.w3.org/Graphics/SVG/1.1/DTD/svg11.dtd">
<svg version="1.1" id="Layer_1" xmlns="http://www.w3.org/2000/svg" xmlns:xlink="http://www.w3.org/1999/xlink" x="0px" y="0px"
	 width="648px" height="72px" viewBox="0 0 648 72" enable-background="new 0 0 648 72" xml:space="preserve">
<path fill="#002B64" d="M37,25.333C34,33,36.5,39.5,38,39.5s20-0.166,20-0.166s0.333,3.666-0.833,7.332C56,50.334,52.5,54,52.5,54
	H28.667L26,58.5c0,0,41.333,0,43.333,0s5.166-4.166,7.333-11.166S79.833,34.667,78,34.667s-21.833,0-21.833,0S54.833,30.5,56.333,26
	s5.167-6.5,5.167-6.5h21.667L85,14.667c0,0-37.5,0-39.5,0S40,17.667,37,25.333z"/>
<polygon fill="#002B64" points="138,14.167 90.833,14.167 88.667,20 102,20 89.667,58.666 109.5,58.666 123,19.833 135.167,19.833 
	"/>
<path fill="#002B64" d="M184.667,14c-3.833,0-33.667-0.167-36.833-0.167S140.333,18.5,139.5,21s-13,37.834-13,37.834l20.583-0.084
	l5.083-13.416h9.5L157.333,58.5h19c0,0,11.833-30.5,13.667-35.833S188.5,14,184.667,14z M168.167,24.333l-6,15H154l5.833-16
	c0,0,1.667-4.5,6-2.833S168.167,24.333,168.167,24.333z"/>
<path fill="#002B64" d="M243,14c-3.833,0-42.333,0.167-42.333,0.167l-16,44.333h20.5l4.5-12.833c0,0,4.5-1.667,5.5,3.667
	c1,5.333,1.167,8.833,1.167,8.833H238l-5.167-13.333c0,0,7-0.834,8-3.167S248,23,249,19.833S246.833,14,243,14z M226.333,23.167
	c-0.5,2.833-4,11.667-4.667,13.833c-0.667,2.166-2.333,1.834-2.333,1.834h-7.167l6.5-18.667h6
	C224.667,20.167,226.833,20.333,226.333,23.167z"/>
<path fill="#002B64" d="M328,13.833h-69.167L243.5,58.5l20,0.083l10.833-31.75l2-6.667c0,0,2.333,0.167,4.833,0.167
	s2.5,2.167,1.333,6.333s-11.167,32-11.167,32l19.5-0.167L303,23.5l1.333-3c0,0,2.5-0.167,4.667-0.167s2.167,2.333,1.5,4.5
	s-11.333,33.833-11.333,33.833H318c0,0,10.834-30.667,12.834-36.667S328,13.833,328,13.833z"/>
<path fill="#002B64" d="M362.167,20.167c2,0,19.167,0,19.167,0l1.333-5.833h-33.833c0,0-6.833,1.333-8.5,5.5
	S330.001,48.5,328.834,52s3.833,6.666,3.833,6.666h34.667L369.5,54c0,0-11.666,0-16.333,0S350,50.166,350,50.166
	s3.168-10.332,3.834-10.332s16.5,0,16.5,0l3-5.834h-17.5C355.834,34,360.167,20.167,362.167,20.167z"/>
<path fill="#002B64" d="M434.5,14.5c-5.666,0-43.666,0.333-43.666,0.333L375.667,58.5l19.833,0.166l13.834-38.333
	c0,0,9.334-1,7,6.167S405,58.5,405,58.5h21.334l11.5-35.667C437.834,22.833,440.166,14.5,434.5,14.5z"/>
<polygon fill="#002B64" points="433.667,58.334 447.667,58.5 451.5,49 437,49 "/>
<path fill="#002B64" d="M515.167,14.833c-5.666,0-43.666,0.333-43.666,0.333l-15.167,43.667L476.167,59l13.834-38.333
	c0,0,9.334-1,7,6.167s-11.334,32-11.334,32h21.334l11.5-35.667C518.501,23.167,520.833,14.833,515.167,14.833z"/>
<path fill="#002B64" d="M528.668,20.5c-1.668,4.167-10.334,28.666-11.5,32.166C516,56.166,521,59.333,521,59.333h34.668l2.166-4.667
	c0,0-11.666,0-16.334,0c-4.666,0-3.166-3.833-3.166-3.833s3.168-10.333,3.834-10.333s16.5,0,16.5,0l3-5.833h-17.5
	c0,0,4.332-13.833,6.332-13.833s19.168,0,19.168,0L571,15h-33.832C537.168,15,530.334,16.333,528.668,20.5z"/>
<polygon fill="#002B64" points="574.168,14.5 572,20.333 585.334,20.333 573,59 592.834,59 606.334,20.167 618.5,20.167 
	621.334,14.5 "/>
</svg>
